<?xml version="1.0" encoding="utf-8"?>
<!-- Generator: Adobe Illustrator 23.0.3, SVG Export Plug-In . SVG Version: 6.00 Build 0)  -->
<svg version="1.1" id="Layer_1" xmlns="http://www.w3.org/2000/svg" xmlns:xlink="http://www.w3.org/1999/xlink" x="0px" y="0px"
	 viewBox="0 0 342.31 232.96" style="enable-background:new 0 0 342.31 232.96;" xml:space="preserve">
<g>
	<g>
		<polygon points="90.39,72.29 70.86,91.81 140.76,91.81 140.76,189.26 160.29,208.79 160.29,91.81 160.29,72.29 		"/>
		<polygon points="249.73,72.29 179.86,72.29 179.86,91.81 179.86,208.85 199.38,189.33 199.38,91.81 269.26,91.81 		"/>
		<polygon points="305.07,72.29 285.54,52.74 266.02,33.22 239.26,33.22 238.38,33.22 101.64,33.22 101.64,33.21 74,33.21 
			15.41,91.81 43.02,91.81 82.09,52.74 257.91,52.74 277.45,72.29 296.98,91.81 324.59,91.81 		"/>
	</g>
</g>
</svg>
