<?xml version="1.0" encoding="utf-8"?>
<!-- Generator: Adobe Illustrator 23.0.3, SVG Export Plug-In . SVG Version: 6.00 Build 0)  -->
<svg version="1.1" id="Layer_1" xmlns="http://www.w3.org/2000/svg" xmlns:xlink="http://www.w3.org/1999/xlink" x="0px" y="0px"
	 viewBox="0 0 70 50" style="enable-background:new 0 0 70 50;" xml:space="preserve">
<style type="text/css">
	.st0{fill:url(#SVGID_1_);}
	.st1{fill:none;stroke:url(#SVGID_2_);stroke-width:5;stroke-miterlimit:10;}
	.st2{fill:url(#SVGID_3_);}
	.st3{fill:url(#SVGID_4_);}
	.st4{fill:url(#SVGID_5_);}
	.st5{fill:url(#SVGID_6_);}
	.st6{fill:url(#SVGID_7_);}
	.st7{fill:none;}
	.st8{fill:url(#SVGID_8_);}
	.st9{fill:#FFFFFF;}
	.st10{fill:url(#SVGID_9_);}
	.st11{fill:#240E47;}
	.st12{fill:none;stroke:#240E47;stroke-width:5;stroke-miterlimit:10;}
	.st13{fill:#231247;}
	.st14{fill:none;stroke:#EA5E28;stroke-width:2;stroke-miterlimit:10;}
	.st15{fill:#EA5E28;}
	.st16{fill:url(#SVGID_10_);}
	.st17{fill:url(#SVGID_11_);}
	.st18{fill:url(#SVGID_12_);}
	.st19{fill:#2E215B;}
	.st20{opacity:0.17;}
	.st21{fill:#ED2C85;}
	.st22{fill:#AD2F92;}
</style>
<linearGradient id="SVGID_1_" gradientUnits="userSpaceOnUse" x1="-395.5208" y1="101.1154" x2="-395.5208" y2="25.3042">
	<stop  offset="0" style="stop-color:#ED2C85"/>
	<stop  offset="0.1536" style="stop-color:#AD2F92"/>
	<stop  offset="0.2933" style="stop-color:#4D3594"/>
	<stop  offset="0.4665" style="stop-color:#442F91"/>
	<stop  offset="0.6397" style="stop-color:#4A4EA1"/>
	<stop  offset="0.7626" style="stop-color:#5064AE"/>
	<stop  offset="0.8631" style="stop-color:#5B8FCB"/>
	<stop  offset="1" style="stop-color:#50C8EF"/>
</linearGradient>
<path class="st0" d="M-381.71,123.87h-27.62c-4.75,0-8.64-3.89-8.64-8.64V87.61c0-4.75,3.89-8.64,8.64-8.64h27.62
	c4.75,0,8.64,3.89,8.64,8.64v27.62C-373.07,119.98-376.96,123.87-381.71,123.87z"/>
<path d="M-217.6,51.73h-97.7c-4.75,0-8.64-3.89-8.64-8.64v-97.7c0-4.75,3.89-8.64,8.64-8.64h97.7c4.75,0,8.64,3.89,8.64,8.64v97.7
	C-208.96,47.84-212.84,51.73-217.6,51.73z"/>
<linearGradient id="SVGID_2_" gradientUnits="userSpaceOnUse" x1="-471.4578" y1="45.2798" x2="-348.4726" y2="-56.8032">
	<stop  offset="0" style="stop-color:#ED2C85"/>
	<stop  offset="0.1536" style="stop-color:#AD2F92"/>
	<stop  offset="0.2933" style="stop-color:#4D3594"/>
	<stop  offset="0.4665" style="stop-color:#442F91"/>
	<stop  offset="0.6397" style="stop-color:#4A4EA1"/>
	<stop  offset="0.7626" style="stop-color:#5064AE"/>
	<stop  offset="0.8631" style="stop-color:#5B8FCB"/>
	<stop  offset="1" style="stop-color:#50C8EF"/>
</linearGradient>
<path class="st1" d="M-361.12,51.73h-97.7c-4.75,0-8.64-3.89-8.64-8.64v-97.7c0-4.75,3.89-8.64,8.64-8.64h97.7
	c4.75,0,8.64,3.89,8.64,8.64v97.7C-352.48,47.84-356.36,51.73-361.12,51.73z"/>
<g>
	<linearGradient id="SVGID_3_" gradientUnits="userSpaceOnUse" x1="789.9757" y1="-70.0237" x2="1261.1857" y2="87.0463">
		<stop  offset="0" style="stop-color:#ED2C85"/>
		<stop  offset="0.1536" style="stop-color:#AD2F92"/>
		<stop  offset="0.2933" style="stop-color:#4D3594"/>
		<stop  offset="0.4665" style="stop-color:#442F91"/>
		<stop  offset="0.6397" style="stop-color:#4A4EA1"/>
		<stop  offset="0.7626" style="stop-color:#5064AE"/>
		<stop  offset="0.8631" style="stop-color:#5B8FCB"/>
		<stop  offset="1" style="stop-color:#50C8EF"/>
	</linearGradient>
	<polygon class="st2" points="903.38,-56.6 746.38,-56.6 752.88,-62.35 896.87,-62.35 	"/>
	<linearGradient id="SVGID_4_" gradientUnits="userSpaceOnUse" x1="801.2408" y1="-89.7302" x2="1218.0518" y2="49.2068">
		<stop  offset="0" style="stop-color:#ED2C85"/>
		<stop  offset="0.1536" style="stop-color:#AD2F92"/>
		<stop  offset="0.2933" style="stop-color:#4D3594"/>
		<stop  offset="0.4665" style="stop-color:#442F91"/>
		<stop  offset="0.6397" style="stop-color:#4A4EA1"/>
		<stop  offset="0.7626" style="stop-color:#5064AE"/>
		<stop  offset="0.8631" style="stop-color:#5B8FCB"/>
		<stop  offset="1" style="stop-color:#50C8EF"/>
	</linearGradient>
	<polygon class="st3" points="920.71,-45.72 912.58,-45.72 906.83,-51.47 901.7,-56.6 895.95,-62.35 904.08,-62.35 909.83,-56.6 
		914.96,-51.47 	"/>
	<g>
		<linearGradient id="SVGID_5_" gradientUnits="userSpaceOnUse" x1="782.2772" y1="-32.8394" x2="1199.0881" y2="106.0976">
			<stop  offset="0" style="stop-color:#ED2C85"/>
			<stop  offset="0.1536" style="stop-color:#AD2F92"/>
			<stop  offset="0.2933" style="stop-color:#4D3594"/>
			<stop  offset="0.4665" style="stop-color:#442F91"/>
			<stop  offset="0.6397" style="stop-color:#4A4EA1"/>
			<stop  offset="0.7626" style="stop-color:#5064AE"/>
			<stop  offset="0.8631" style="stop-color:#5B8FCB"/>
			<stop  offset="1" style="stop-color:#50C8EF"/>
		</linearGradient>
		<polygon class="st4" points="905.34,-45.72 834.67,-45.72 834.67,34.72 828.94,40.44 828.92,40.44 828.92,-51.47 899.59,-51.47 		
			"/>
		<linearGradient id="SVGID_6_" gradientUnits="userSpaceOnUse" x1="777.999" y1="-20.0048" x2="1194.8099" y2="118.9322">
			<stop  offset="0" style="stop-color:#ED2C85"/>
			<stop  offset="0.1536" style="stop-color:#AD2F92"/>
			<stop  offset="0.2933" style="stop-color:#4D3594"/>
			<stop  offset="0.4665" style="stop-color:#442F91"/>
			<stop  offset="0.6397" style="stop-color:#4A4EA1"/>
			<stop  offset="0.7626" style="stop-color:#5064AE"/>
			<stop  offset="0.8631" style="stop-color:#5B8FCB"/>
			<stop  offset="1" style="stop-color:#50C8EF"/>
		</linearGradient>
		<polygon class="st5" points="821.51,-51.47 821.51,40.44 821.44,40.44 815.76,34.76 815.76,-45.72 744.71,-45.72 750.46,-51.47 		
			"/>
	</g>
	<linearGradient id="SVGID_7_" gradientUnits="userSpaceOnUse" x1="784.5738" y1="-39.7294" x2="1201.3848" y2="99.2076">
		<stop  offset="0" style="stop-color:#ED2C85"/>
		<stop  offset="0.1536" style="stop-color:#AD2F92"/>
		<stop  offset="0.2933" style="stop-color:#4D3594"/>
		<stop  offset="0.4665" style="stop-color:#442F91"/>
		<stop  offset="0.6397" style="stop-color:#4A4EA1"/>
		<stop  offset="0.7626" style="stop-color:#5064AE"/>
		<stop  offset="0.8631" style="stop-color:#5B8FCB"/>
		<stop  offset="1" style="stop-color:#50C8EF"/>
	</linearGradient>
	<polygon class="st6" points="754.04,-62.35 748.29,-56.6 743.16,-51.47 737.41,-45.72 729.28,-45.72 735.03,-51.47 740.16,-56.6 
		745.91,-62.35 	"/>
</g>
<line class="st7" x1="-467.48" y1="-26.41" x2="-468.54" y2="-27.47"/>
<line class="st7" x1="-465.03" y1="-27.48" x2="-466.09" y2="-26.41"/>
<g>
	<linearGradient id="SVGID_8_" gradientUnits="userSpaceOnUse" x1="1055.797" y1="189.6505" x2="1055.797" y2="-171.702">
		<stop  offset="0" style="stop-color:#ED2C85"/>
		<stop  offset="0.1536" style="stop-color:#AD2F92"/>
		<stop  offset="0.2933" style="stop-color:#4D3594"/>
		<stop  offset="0.4665" style="stop-color:#442F91"/>
		<stop  offset="0.6397" style="stop-color:#4A4EA1"/>
		<stop  offset="0.7626" style="stop-color:#5064AE"/>
		<stop  offset="0.8631" style="stop-color:#5B8FCB"/>
		<stop  offset="1" style="stop-color:#50C8EF"/>
	</linearGradient>
	<path class="st8" d="M1154.15,298.09H957.44c-4.75,0-8.64-3.89-8.64-8.64V92.75c0-4.75,3.89-8.64,8.64-8.64h196.71
		c4.75,0,8.64,3.89,8.64,8.64v196.71C1162.79,294.2,1158.9,298.09,1154.15,298.09z"/>
	<g>
		<polygon class="st9" points="1121.73,169.09 989.92,169.09 995.38,163.64 1116.28,163.64 		"/>
		<polygon class="st9" points="1146.65,179.42 1138.93,179.42 1133.47,173.96 1128.6,169.09 1123.14,163.64 1130.86,163.64 
			1136.32,169.09 1141.19,173.96 		"/>
		<g>
			<polygon class="st9" points="1132.06,179.42 1064.98,179.42 1064.98,255.77 1059.54,261.2 1059.52,261.2 1059.52,173.96 
				1126.6,173.96 			"/>
			<polygon class="st9" points="1052.49,173.96 1052.49,261.2 1052.42,261.2 1047.03,255.81 1047.03,179.42 979.6,179.42 
				985.05,173.96 			"/>
		</g>
		<polygon class="st9" points="988.45,163.64 982.99,169.09 978.13,173.96 972.67,179.42 964.95,179.42 970.41,173.96 
			975.27,169.09 980.73,163.64 		"/>
	</g>
	<line class="st7" x1="1049.63" y1="259.69" x2="1044.6" y2="254.66"/>
	<line class="st7" x1="1061.34" y1="254.62" x2="1056.27" y2="259.69"/>
</g>
<line class="st7" x1="-165.62" y1="310.41" x2="-170.65" y2="305.38"/>
<line class="st7" x1="-153.91" y1="305.34" x2="-158.98" y2="310.41"/>
<g>
	<linearGradient id="SVGID_9_" gradientUnits="userSpaceOnUse" x1="815.6556" y1="174.8347" x2="815.6556" y2="-86.9103">
		<stop  offset="0" style="stop-color:#ED2C85"/>
		<stop  offset="0.1536" style="stop-color:#AD2F92"/>
		<stop  offset="0.2933" style="stop-color:#4D3594"/>
		<stop  offset="0.4665" style="stop-color:#442F91"/>
		<stop  offset="0.6397" style="stop-color:#4A4EA1"/>
		<stop  offset="0.7626" style="stop-color:#5064AE"/>
		<stop  offset="0.8631" style="stop-color:#5B8FCB"/>
		<stop  offset="1" style="stop-color:#50C8EF"/>
	</linearGradient>
	<path class="st10" d="M861.92,253.38h-92.52c-4.75,0-8.64-3.89-8.64-8.64V107.02c0-4.75,3.89-8.64,8.64-8.64h92.52
		c4.75,0,8.64,3.89,8.64,8.64v137.72C870.56,249.5,866.67,253.38,861.92,253.38z"/>
	<g>
		<polygon class="st9" points="855.69,216.06 775.66,216.06 778.97,212.74 852.38,212.74 		"/>
		<polygon class="st9" points="870.82,222.33 866.13,222.33 862.82,219.01 859.86,216.06 856.55,212.74 861.23,212.74 
			864.55,216.06 867.5,219.01 		"/>
		<g>
			<polygon class="st9" points="861.96,222.33 821.23,222.33 821.23,268.68 817.93,271.98 817.92,271.98 817.92,219.01 
				858.65,219.01 			"/>
			<polygon class="st9" points="813.65,219.01 813.65,271.98 813.61,271.98 810.33,268.71 810.33,222.33 769.39,222.33 
				772.7,219.01 			"/>
		</g>
		<polygon class="st9" points="774.77,212.74 771.45,216.06 768.5,219.01 765.18,222.33 760.49,222.33 763.81,219.01 766.76,216.06 
			770.08,212.74 		"/>
	</g>
	<line class="st7" x1="833.79" y1="225.57" x2="830.14" y2="221.93"/>
	<line class="st7" x1="842.27" y1="221.9" x2="838.6" y2="225.57"/>
</g>
<g>
	<polygon class="st9" points="-406.26,97.74 -408.89,100.37 -399.46,100.37 -399.46,113.52 -396.83,116.15 -396.83,100.37 
		-396.83,97.74 	"/>
	<polygon class="st9" points="-384.77,97.74 -394.19,97.74 -394.19,100.37 -394.19,116.16 -391.56,113.53 -391.56,100.37 
		-382.13,100.37 	"/>
	<polygon class="st9" points="-377.3,97.74 -379.93,95.1 -382.57,92.47 -386.18,92.47 -386.3,92.47 -404.74,92.47 -404.74,92.47 
		-408.47,92.47 -416.37,100.37 -412.65,100.37 -407.38,95.1 -383.66,95.1 -381.03,97.74 -378.39,100.37 -374.67,100.37 	"/>
</g>
<g>
	<polygon class="st9" points="-291.14,-14.79 -297.39,-8.54 -275.03,-8.54 -275.03,22.62 -268.79,28.87 -268.79,-8.54 
		-268.79,-14.79 	"/>
	<polygon class="st9" points="-240.18,-14.79 -262.53,-14.79 -262.53,-8.54 -262.53,28.89 -256.29,22.64 -256.29,-8.54 
		-233.94,-8.54 	"/>
	<polygon class="st9" points="-222.49,-14.79 -228.73,-21.04 -234.98,-27.28 -243.53,-27.28 -243.81,-27.28 -287.55,-27.28 
		-287.55,-27.28 -296.38,-27.28 -315.12,-8.54 -306.29,-8.54 -293.8,-21.04 -237.57,-21.04 -231.32,-14.79 -225.07,-8.54 
		-216.24,-8.54 	"/>
</g>
<g>
	<g>
		<path class="st11" d="M-59.29,51.73h-97.7c-4.75,0-8.64-3.89-8.64-8.64v-97.7c0-4.75,3.89-8.64,8.64-8.64h97.7
			c4.75,0,8.64,3.89,8.64,8.64v97.7C-50.65,47.84-54.53,51.73-59.29,51.73z"/>
	</g>
	<g>
		<polygon class="st9" points="-134.18,-14.94 -140.57,-8.56 -117.7,-8.56 -117.7,23.32 -111.31,29.71 -111.31,-8.56 
			-111.31,-14.94 		"/>
		<polygon class="st9" points="-82.05,-14.94 -104.91,-14.94 -104.91,-8.56 -104.91,29.73 -98.52,23.34 -98.52,-8.56 -75.66,-8.56 
					"/>
		<polygon class="st9" points="-63.95,-14.94 -70.33,-21.34 -76.72,-27.73 -85.48,-27.73 -85.76,-27.73 -130.5,-27.73 
			-130.5,-27.73 -139.54,-27.73 -158.71,-8.56 -149.67,-8.56 -136.89,-21.34 -79.38,-21.34 -72.98,-14.94 -66.59,-8.56 
			-57.56,-8.56 		"/>
	</g>
</g>
<g>
	<g>
		<path class="st11" d="M248.07,39.87h-97.7c-4.75,0-8.64-3.89-8.64-8.64v-97.7c0-4.75,3.89-8.64,8.64-8.64h97.7
			c4.75,0,8.64,3.89,8.64,8.64v97.7C256.71,35.98,252.82,39.87,248.07,39.87z"/>
	</g>
	<g>
		<polygon class="st9" points="173.18,-26.8 166.79,-20.41 189.66,-20.41 189.66,11.47 196.04,17.86 196.04,-20.41 196.04,-26.8 		
			"/>
		<polygon class="st9" points="225.31,-26.8 202.45,-26.8 202.45,-20.41 202.45,17.88 208.83,11.49 208.83,-20.41 231.69,-20.41 		
			"/>
		<polygon class="st9" points="243.41,-26.8 237.02,-33.19 230.63,-39.58 221.88,-39.58 221.59,-39.58 176.86,-39.58 176.86,-39.58 
			167.82,-39.58 148.65,-20.41 157.68,-20.41 170.46,-33.19 227.98,-33.19 234.37,-26.8 240.76,-20.41 249.8,-20.41 		"/>
	</g>
</g>
<g>
	<g>
		<path class="st11" d="M98.14-49.62H83.42c-4.75,0-8.64-3.89-8.64-8.64v-14.72c0-4.75,3.89-8.64,8.64-8.64h14.72
			c4.75,0,8.64,3.89,8.64,8.64v14.72C106.78-53.5,102.89-49.62,98.14-49.62z"/>
	</g>
	<g>
		<polygon class="st9" points="83.53,-68.17 81.75,-66.39 88.12,-66.39 88.12,-57.52 89.89,-55.74 89.89,-66.39 89.89,-68.17 		"/>
		<polygon class="st9" points="98.04,-68.17 91.68,-68.17 91.68,-66.39 91.68,-55.74 93.45,-57.51 93.45,-66.39 99.82,-66.39 		"/>
		<polygon class="st9" points="103.08,-68.17 101.3,-69.95 99.52,-71.73 97.08,-71.73 97,-71.73 84.55,-71.73 84.55,-71.73 
			82.04,-71.73 76.7,-66.39 79.22,-66.39 82.77,-69.95 98.78,-69.95 100.56,-68.17 102.34,-66.39 104.85,-66.39 		"/>
	</g>
</g>
<g>
	<g>
		<path class="st11" d="M455.92,92.38H305.19c-4.75,0-8.64-3.89-8.64-8.64V-66.98c0-4.75,3.89-8.64,8.64-8.64h150.72
			c4.75,0,8.64,3.89,8.64,8.64V83.75C464.56,88.5,460.67,92.38,455.92,92.38z"/>
	</g>
	<g>
		<polygon class="st9" points="342.5,-5.03 333.17,4.3 366.58,4.3 366.58,50.88 375.91,60.22 375.91,4.3 375.91,-5.03 		"/>
		<polygon class="st9" points="418.67,-5.03 385.27,-5.03 385.27,4.3 385.27,60.25 394.6,50.91 394.6,4.3 428,4.3 		"/>
		<polygon class="st9" points="445.12,-5.03 435.79,-14.38 426.45,-23.71 413.66,-23.71 413.24,-23.71 347.88,-23.71 347.88,-23.71 
			334.67,-23.71 306.66,4.3 319.86,4.3 338.53,-14.38 422.58,-14.38 431.92,-5.03 441.25,4.3 454.45,4.3 		"/>
	</g>
</g>
<g>
	<g>
		<path class="st11" d="M666.81,105.6H503.19c-4.75,0-8.64-3.89-8.64-8.64V-66.65c0-4.75,3.89-8.64,8.64-8.64h163.61
			c4.75,0,8.64,3.89,8.64,8.64V96.97C675.44,101.72,671.56,105.6,666.81,105.6z"/>
	</g>
	<g>
		<polygon class="st9" points="544.02,0.71 533.98,10.76 569.95,10.76 569.95,60.92 580,70.97 580,10.76 580,0.71 		"/>
		<polygon class="st9" points="626.04,0.71 590.07,0.71 590.07,10.76 590.07,71 600.12,60.95 600.12,10.76 636.09,10.76 		"/>
		<polygon class="st9" points="654.52,0.71 644.47,-9.35 634.42,-19.4 620.65,-19.4 620.19,-19.4 549.82,-19.4 549.82,-19.4 
			535.59,-19.4 505.43,10.76 519.65,10.76 539.76,-9.35 630.24,-9.35 640.3,0.71 650.35,10.76 664.57,10.76 		"/>
	</g>
</g>
<path class="st12" d="M-62.46,196.91h-97.7c-4.75,0-8.64-3.89-8.64-8.64v-97.7c0-4.75,3.89-8.64,8.64-8.64h97.7
	c4.75,0,8.64,3.89,8.64,8.64v97.7C-53.82,193.02-57.71,196.91-62.46,196.91z"/>
<g>
	<polygon class="st13" points="-137.36,130.24 -143.74,136.63 -120.88,136.63 -120.88,168.51 -114.49,174.9 -114.49,136.63 
		-114.49,130.24 	"/>
	<polygon class="st13" points="-85.23,130.24 -108.09,130.24 -108.09,136.63 -108.09,174.92 -101.7,168.53 -101.7,136.63 
		-78.84,136.63 	"/>
	<polygon class="st13" points="-67.12,130.24 -73.51,123.85 -79.9,117.46 -88.65,117.46 -88.94,117.46 -133.68,117.46 
		-133.68,117.46 -142.72,117.46 -161.89,136.63 -152.85,136.63 -140.07,123.85 -82.55,123.85 -76.16,130.24 -69.77,136.63 
		-60.74,136.63 	"/>
</g>
<path class="st12" d="M-62.89,316.09h-97.7c-4.75,0-8.64-3.89-8.64-8.64v-69.76c0-4.75,3.89-8.64,8.64-8.64h97.7
	c4.75,0,8.64,3.89,8.64,8.64v69.76C-54.25,312.2-58.14,316.09-62.89,316.09z"/>
<g>
	<polygon class="st13" points="-137.78,258.55 -144.17,264.94 -121.31,264.94 -121.31,296.82 -114.92,303.21 -114.92,264.94 
		-114.92,258.55 	"/>
	<polygon class="st13" points="-85.66,258.55 -108.52,258.55 -108.52,264.94 -108.52,303.23 -102.13,296.84 -102.13,264.94 
		-79.27,264.94 	"/>
	<polygon class="st13" points="-67.55,258.55 -73.94,252.16 -80.33,245.77 -89.08,245.77 -89.37,245.77 -134.1,245.77 
		-134.1,245.77 -143.15,245.77 -162.31,264.94 -153.28,264.94 -140.5,252.16 -82.98,252.16 -76.59,258.55 -70.2,264.94 
		-61.17,264.94 	"/>
</g>
<path class="st14" d="M59.31,46.79H10.69c-2.46,0-4.48-2.02-4.48-4.48V7.69c0-2.46,2.02-4.48,4.48-4.48h48.61
	c2.46,0,4.48,2.02,4.48,4.48v34.62C63.79,44.77,61.77,46.79,59.31,46.79z"/>
<g>
	<polygon class="st15" points="23.32,18.7 20.46,21.56 30.71,21.56 30.71,35.86 33.57,38.73 33.57,21.56 33.57,18.7 	"/>
	<polygon class="st15" points="46.7,18.7 36.45,18.7 36.45,21.56 36.45,38.74 39.31,35.87 39.31,21.56 49.56,21.56 	"/>
	<polygon class="st15" points="54.82,18.7 51.95,15.83 49.09,12.97 45.16,12.97 45.03,12.97 24.97,12.97 24.97,12.97 20.92,12.97 
		12.32,21.56 16.37,21.56 22.1,15.83 47.9,15.83 50.76,18.7 53.63,21.56 57.68,21.56 	"/>
</g>
<path class="st11" d="M-264.09,196.91L-264.09,196.91c-31.62,0-57.49-25.87-57.49-57.49v0c0-31.62,25.87-57.49,57.49-57.49h0
	c31.62,0,57.49,25.87,57.49,57.49v0C-206.61,171.04-232.48,196.91-264.09,196.91z"/>
<g>
	<polygon class="st9" points="-286.63,132.39 -292.16,137.92 -272.37,137.92 -272.37,165.5 -266.84,171.03 -266.84,137.92 
		-266.84,132.39 	"/>
	<polygon class="st9" points="-241.52,132.39 -261.3,132.39 -261.3,137.92 -261.3,171.05 -255.78,165.52 -255.78,137.92 
		-236,137.92 	"/>
	<polygon class="st9" points="-225.86,132.39 -231.39,126.86 -236.91,121.33 -244.49,121.33 -244.74,121.33 -283.45,121.33 
		-283.44,121.33 -291.27,121.33 -307.86,137.92 -300.04,137.92 -288.98,126.86 -239.21,126.86 -233.68,132.39 -228.15,137.92 
		-220.33,137.92 	"/>
</g>
<path class="st12" d="M-267.27,342.1L-267.27,342.1c-31.62,0-57.49-25.87-57.49-57.49v0c0-31.62,25.87-57.49,57.49-57.49h0
	c31.62,0,57.49,25.87,57.49,57.49v0C-209.78,316.23-235.65,342.1-267.27,342.1z"/>
<g>
	<polygon class="st13" points="-290.23,277.32 -295.86,282.95 -275.7,282.95 -275.7,311.04 -270.07,316.67 -270.07,282.95 
		-270.07,277.32 	"/>
	<polygon class="st13" points="-244.28,277.32 -264.43,277.32 -264.43,282.95 -264.43,316.69 -258.8,311.06 -258.8,282.95 
		-238.65,282.95 	"/>
	<polygon class="st13" points="-228.33,277.32 -233.96,271.68 -239.59,266.05 -247.3,266.05 -247.56,266.05 -286.98,266.05 
		-286.98,266.05 -294.95,266.05 -311.84,282.95 -303.88,282.95 -292.62,271.68 -241.93,271.68 -236.29,277.32 -230.66,282.95 
		-222.7,282.95 	"/>
</g>
<g>
	<linearGradient id="SVGID_10_" gradientUnits="userSpaceOnUse" x1="-437.8421" y1="11.2905" x2="-250.9769" y2="-60.7996">
		<stop  offset="0" style="stop-color:#ED2C85"/>
		<stop  offset="0.1536" style="stop-color:#AD2F92"/>
		<stop  offset="0.2933" style="stop-color:#4D3594"/>
		<stop  offset="0.4665" style="stop-color:#442F91"/>
		<stop  offset="0.6397" style="stop-color:#4A4EA1"/>
		<stop  offset="0.7626" style="stop-color:#5064AE"/>
		<stop  offset="0.8631" style="stop-color:#5B8FCB"/>
		<stop  offset="1" style="stop-color:#50C8EF"/>
	</linearGradient>
	<polygon class="st16" points="-436.66,-15.3 -442.9,-9.06 -420.55,-9.06 -420.55,22.1 -414.3,28.35 -414.3,-9.06 -414.3,-15.3 	"/>
	<linearGradient id="SVGID_11_" gradientUnits="userSpaceOnUse" x1="-464.6996" y1="28.3885" x2="-183.4585" y2="-80.1106">
		<stop  offset="0" style="stop-color:#ED2C85"/>
		<stop  offset="0.1536" style="stop-color:#AD2F92"/>
		<stop  offset="0.2933" style="stop-color:#4D3594"/>
		<stop  offset="0.4665" style="stop-color:#442F91"/>
		<stop  offset="0.6397" style="stop-color:#4A4EA1"/>
		<stop  offset="0.7626" style="stop-color:#5064AE"/>
		<stop  offset="0.8631" style="stop-color:#5B8FCB"/>
		<stop  offset="1" style="stop-color:#50C8EF"/>
	</linearGradient>
	<polygon class="st17" points="-385.7,-15.3 -408.05,-15.3 -408.05,-9.06 -408.05,28.37 -401.8,22.13 -401.8,-9.06 -379.45,-9.06 	
		"/>
	<linearGradient id="SVGID_12_" gradientUnits="userSpaceOnUse" x1="-443.1572" y1="-2.4868" x2="-256.2925" y2="-74.5767">
		<stop  offset="0" style="stop-color:#ED2C85"/>
		<stop  offset="0.1536" style="stop-color:#AD2F92"/>
		<stop  offset="0.2933" style="stop-color:#4D3594"/>
		<stop  offset="0.4665" style="stop-color:#442F91"/>
		<stop  offset="0.6397" style="stop-color:#4A4EA1"/>
		<stop  offset="0.7626" style="stop-color:#5064AE"/>
		<stop  offset="0.8631" style="stop-color:#5B8FCB"/>
		<stop  offset="1" style="stop-color:#50C8EF"/>
	</linearGradient>
	<polygon class="st18" points="-368,-15.3 -374.25,-21.56 -380.49,-27.8 -389.05,-27.8 -389.33,-27.8 -433.06,-27.8 -433.06,-27.8 
		-441.9,-27.8 -460.64,-9.06 -451.81,-9.06 -439.31,-21.56 -383.09,-21.56 -376.83,-15.3 -370.59,-9.06 -361.76,-9.06 	"/>
</g>
<path class="st11" d="M185.24,383.1H57.31c-8.86,0-16.04-7.18-16.04-16.04V207.14c0-8.86,7.18-16.04,16.04-16.04h127.93
	c8.86,0,16.04,7.18,16.04,16.04v159.93C201.28,375.92,194.1,383.1,185.24,383.1z"/>
<text transform="matrix(1 0 0 1 114.2991 223.6587)" class="st9" style="font-family:'MyriadPro-Regular'; font-size:27.1981px;">1</text>
<path class="st19" d="M187.1,383.1H55.45c-7.8,0-14.17-6.38-14.17-14.17v-2.76c0-7.8,6.38-14.17,14.17-14.17H187.1
	c7.8,0,14.17,6.38,14.17,14.17v2.76C201.28,376.72,194.9,383.1,187.1,383.1z"/>
<text transform="matrix(1 0 0 1 96.3692 373.0138)" class="st9" style="font-family:'MyriadPro-Regular'; font-size:12px;">username</text>
<g>
	<polygon class="st9" points="95.23,281 88.84,287.38 111.71,287.38 111.71,319.26 118.1,325.65 118.1,287.38 118.1,281 	"/>
	<polygon class="st9" points="147.36,281 124.5,281 124.5,287.38 124.5,325.67 130.89,319.28 130.89,287.38 153.75,287.38 	"/>
	<polygon class="st9" points="165.46,281 159.07,274.6 152.69,268.21 143.93,268.21 143.65,268.21 98.91,268.21 98.91,268.21 
		89.87,268.21 70.7,287.38 79.74,287.38 92.52,274.6 150.03,274.6 156.43,281 162.81,287.38 171.85,287.38 	"/>
</g>
<text transform="matrix(1 0 0 1 97.4399 260.8279)" class="st9" style="font-family:'MyriadPro-Regular'; font-size:21.841px;">3.00$</text>
<path class="st11" d="M643.96,391.1H516.04c-8.86,0-16.04-7.18-16.04-16.04V215.14c0-8.86,7.18-16.04,16.04-16.04h127.93
	c8.86,0,16.04,7.18,16.04,16.04v159.93C660,383.92,652.82,391.1,643.96,391.1z"/>
<path class="st19" d="M645.83,391.1H514.17c-7.8,0-14.17-6.38-14.17-14.17v-2.76c0-7.8,6.38-14.17,14.17-14.17h131.65
	c7.8,0,14.17,6.38,14.17,14.17v2.76C660,384.72,653.62,391.1,645.83,391.1z"/>
<g class="st20">
	<polygon class="st9" points="553.96,289 547.57,295.38 570.44,295.38 570.44,327.26 576.82,333.65 576.82,295.38 576.82,289 	"/>
	<polygon class="st9" points="606.08,289 583.22,289 583.22,295.38 583.22,333.67 589.61,327.28 589.61,295.38 612.47,295.38 	"/>
	<polygon class="st9" points="624.19,289 617.8,282.6 611.41,276.21 602.66,276.21 602.37,276.21 557.64,276.21 557.64,276.21 
		548.6,276.21 529.43,295.38 538.46,295.38 551.24,282.6 608.76,282.6 615.15,289 621.54,295.38 630.58,295.38 	"/>
</g>
<path class="st21" d="M387.11,380.61H259.18c-8.86,0-16.04-7.18-16.04-16.04V204.65c0-8.86,7.18-16.04,16.04-16.04h127.93
	c8.86,0,16.04,7.18,16.04,16.04v159.93C403.15,373.43,395.97,380.61,387.11,380.61z"/>
<text transform="matrix(1 0 0 1 316.1696 221.1687)" class="st9" style="font-family:'MyriadPro-Regular'; font-size:27.1981px;">1</text>
<path class="st22" d="M388.97,380.61H257.32c-7.8,0-14.17-6.38-14.17-14.17v-2.76c0-7.8,6.38-14.17,14.17-14.17h131.65
	c7.8,0,14.17,6.38,14.17,14.17v2.76C403.15,374.23,396.77,380.61,388.97,380.61z"/>
<text transform="matrix(1 0 0 1 298.2397 370.5238)" class="st9" style="font-family:'MyriadPro-Regular'; font-size:12px;">username</text>
<g>
	<polygon class="st9" points="297.1,278.51 290.71,284.89 313.58,284.89 313.58,316.77 319.97,323.16 319.97,284.89 319.97,278.51 	
		"/>
	<polygon class="st9" points="349.23,278.51 326.37,278.51 326.37,284.89 326.37,323.18 332.76,316.79 332.76,284.89 355.62,284.89 
			"/>
	<polygon class="st9" points="367.33,278.51 360.95,272.11 354.56,265.72 345.8,265.72 345.52,265.72 300.78,265.72 300.78,265.72 
		291.74,265.72 272.57,284.89 281.61,284.89 294.39,272.11 351.9,272.11 358.3,278.51 364.69,284.89 373.72,284.89 	"/>
</g>
<text transform="matrix(1 0 0 1 299.3104 258.3379)" class="st9" style="font-family:'MyriadPro-Regular'; font-size:21.841px;">3.00$</text>
</svg>
